
<svg xmlns="http://www.w3.org/2000/svg" version="1.1" xmlns:xlink="http://www.w3.org/1999/xlink" preserveAspectRatio="none" x="0px" y="0px" width="64px" height="64px" viewBox="0 0 64 64">
<defs>
<g id="Layer1_0_FILL">
<path fill="#666633" fill-opacity="0" stroke="none" d="
M 21.6 0
L 0 0 0 128 128 128 128 0 24.55 0
Q 22.95 -0.25 21.6 0 Z"/>
</g>

<g id="Layer0_0_FILL">
<path fill="#000000" stroke="none" d="
M 108.65 42.15
Q 105.95 40 101.2 36.95 93.05 31.6 88.35 28.75 81.15 24.4 74.95 21.5 73.216796875 20.6642578125 71.85 20.35 70.7896484375 19.0955078125 69.7 17.8 66.4 13.85 61.5 12.85 58.3255859375 12.328125 55.3 12.7 54.11328125 12.5517578125 52.45 12.6 45.8 12.8 42.6 13.65 36.45 15.35 32.7 19.85 28.65 24.55 28.4 30.65 28.3849609375 31.6087890625 28.45 32.6 25.1203125 35.7283203125 21.7 38.8 11.2 48.3 1.65 58.85 0 66.4 3.9 73.5 7.6 80.35 12.55 86.55 21.05 97.25 30.75 106.85 41.4 117.55 55.2 117.05 57.25 116.7 58.75 115.15 66.45 106.85 74.8 99.3
L 95.7 81.85
Q 95.5396484375 83.4416015625 95.5 84.7 95.45 88.3 96 94.15 96.3 97.25 96.6 98.9 97.15 101.5 98.1 103.4 100 107.15 104.1 109.4 107.95 111.55 112.5 111.65 116.25 111.75 118.5 110.25 121.05 108.7 122.9 103.85 128 90.5 126.5 73.95 125.95 67.75 124.55 63.6 123.2 59.7 120.5 55.55 115.5 47.7 108.65 42.15
M 42.25 41.9
L 57.75 28.8 89.85 65.45
Q 85.25 69.85 80.2 73.75 67.2 83.7 55.5 95.1 54.4 96.2 53.25 97.3 52.1 98.45 50.95 99.55 45.15 95.85 39.95 91.65 27.75 81.7 19.65 68.15 19.2 67.35 18.8 66.55 18.4 65.65 18.05 64.8
L 34.9 48.85
Q 35.0326171875 48.996875 35.15 49.15 39.3 54.55 45 57.25 48.3 58.85 52.65 59.75 55.7 60.4 60.6 60.9 60.7544921875 60.9208984375 60.9 60.95 61.388671875 61.801171875 61.95 62.3 62.85 63.2 64.2 63.45 65.5 63.75 66.75 63.4 69.35 62.7 70.65 60.2 71.85 57.9 71.35 55.15 71.15 54.25 70.95 53.8 70.35 52.55 69.2 51.65 68.35 50.9 67.3 50.5 66.35 50.15 65.1 50.25 63.75 50.25 62.75 50.75 62.018359375 50.703125 60.85 50.65 52.4 50.4 47.35 47.05 44.3564453125 45.063671875 42.25 41.9 Z"/>
</g>
</defs>

<g transform="matrix( 0.5, 0, 0, 0.5, 0,0) ">
<use xlink:href="#Layer1_0_FILL"/>
</g>

<g transform="matrix( 0.5, 0, 0, 0.5, 0,0) ">
<use xlink:href="#Layer0_0_FILL"/>
</g>
</svg>
