
<svg xmlns="http://www.w3.org/2000/svg" version="1.1" xmlns:xlink="http://www.w3.org/1999/xlink" preserveAspectRatio="none" x="0px" y="0px" width="24px" height="24px" viewBox="0 0 24 24">
<defs>
<g id="Layer1_0_FILL">
<path fill="#666633" fill-opacity="0" stroke="none" d="
M 21.6 0
L 0 0 0 128 128 128 128 0 24.55 0
Q 22.95 -0.25 21.6 0 Z"/>
</g>

<g id="Layer0_0_FILL">
<path fill="#000000" stroke="none" d="
M 22.4 10.45
Q 22.4 10.4 22.4 10.35 22.9 6.75 22.95 3.1 22.95 2.9 22.8 2.7
L 22.75 2.7
Q 21.05078125 0.8033203125 17.15 0.95 13.297265625 1.139453125 9.2 1.1 5.1525390625 1.0603515625 3.65 1.15 2.1990234375 1.296484375 2 1.75
L 1.95 1.8
Q 0.85 4.15 1.45 6.7 1.75 8.05 1.9 9.45 2.15 11.75 3.85 12.9 3.9 12.95 3.95 13 4.2 14.35 4.4 15.6
L 4.4 15.65
Q 4.6 17.2 5.75 18 5.8 18 5.8 18.05 5.85 18.1 5.85 18.15 6 20.25 6.8 22.25 6.95 22.55 7.2 22.6 12.2 23.05 17.15 22.7 17.25 22.7 17.3 22.6 18.4 20.85 18.1 18.35 18.1 18.3 18.15 18.25 18.15 18.2 18.2 18.2 18.25 18.15 18.3 18.15 18.75 18.15 19.25 17.95 19.45 17.9 19.6 17.65 20.45 15.7 20.3 13.25 20.3 13.2 20.35 13.15 20.35 13.1 20.4 13.1 20.45 13.05 20.5 13.05 20.65 13.05 20.8 13
L 20.85 13
Q 22.8 12.5 22.4 10.45
M 7.8 18.4
Q 7.85 18.35 7.9 18.35
L 16.1 18.2
Q 16.15 18.2 16.2 18.25 16.25 18.25 16.25 18.3 16.3 18.35 16.3 18.4
L 16.05 20.85 16.05 20.9
Q 16.05 20.95 16 21 15.95 21.05 15.85 21.05
L 8.4 21
Q 8.35 21 8.3 20.95 8.25 20.9 8.2 20.85
L 7.7 18.6
Q 7.7 18.55 7.75 18.5 7.75 18.45 7.8 18.4
M 18.1 3.95
Q 19.5923828125 4.0111328125 19.5 4.45
L 19 9.2 19 9.25
Q 19 9.3 18.9 9.35 18.85 9.4 18.8 9.4
L 5.5 9.5
Q 5.45 9.5 5.4 9.45 5.35 9.4 5.3 9.35
L 4.6 4.35
Q 6.9060546875 4.09453125 9.45 4.05 12.0384765625 4.0583984375 14.3 3.95 16.6078125 3.8845703125 18.1 3.95
M 16.75 11.95
Q 17.4791015625 12.06328125 17.7 12.15 17.773046875 12.8419921875 17.7 13.2
L 17.75 13.25 17.7 13.25
Q 17.75 13.3 17.75 13.35
L 17.45 15.5
Q 17.45 15.55 17.35 15.6 17.3 15.65 17.25 15.65
L 7.35 15.6
Q 7.3 15.6 7.3 15.55
L 7.2 15.55
Q 7.15 15.5 7.15 15.45
L 7.1 15.4
Q 7.05 15.35 7.05 15.3 7 15.2 6.95 15.1 6.9 15.05 6.9 15 6.85 14.65 6.75 14.3
L 6.75 14.25
Q 6.7 13.903125 6.65 13.55 6.6017578125 13.2412109375 6.55 12.2 6.542578125 11.8083984375 11.1 11.8 15.65390625 11.84140625 16.75 11.95 Z"/>
</g>
</defs>

<g transform="matrix( 0.1875, 0, 0, 0.1875, 0,0) ">
<use xlink:href="#Layer1_0_FILL"/>
</g>

<g transform="matrix( 1, 0, 0, 1, 0,0) ">
<use xlink:href="#Layer0_0_FILL"/>
</g>
</svg>
