
<svg xmlns="http://www.w3.org/2000/svg" version="1.1" xmlns:xlink="http://www.w3.org/1999/xlink" preserveAspectRatio="none" x="0px" y="0px" width="24px" height="24px" viewBox="0 0 24 24">
<defs>
<g id="Layer1_0_FILL">
<path fill="#FEFEFE" fill-opacity="0.00392156862745098" stroke="none" d="
M 0 0
L 0 24 24 24 24 0 0 0 Z"/>
</g>

<g id="Layer0_0_FILL">
<path fill="#000000" stroke="none" d="
M 21.7 6.05
Q 21.5 5.4 21.1 4.85 20.4 3.85 19.55 3 19.1 2.55 18.65 2.25 18.5 2.15 18.4 2.1 18.25 2.1 18.1 2.15 17.2 2.65 16.3 3.15
L 15.25 2.7 14.9 0.95
Q 13.9 0.35 12.95 0.4 11.85 0.15 10.85 0.6 10.25 0.9 9.8 1.35 9.55 1.6 9.35 1.9 9.15 2.2 8.95 2.55
L 7.45 3.05
Q 6.7 2.6 5.95 2.2 5.8 2.15 5.7 2.15 5.55 2.15 5.45 2.2 5 2.5 4.6 2.8 3.8 3.5 3 4.2 2.6 4.6 2.25 5.05 2.2 5.15 2.2 5.25 2.25 5.65 2.35 6.1 2.4 6.35 2.55 6.65 2.75 7.15 3.05 7.65
L 2.55 8.7 0.75 9.2
Q 0.7 9.3 0.65 9.45 0.25 10.75 0.25 11.95 0.25 12.85 0.6 13.55 0.85 14.1 1.3 14.5 1.55 14.8 1.9 15 2.3 15.05 2.75 15.1
L 3.2 16.55 2.25 18.25
Q 2.55 18.85 3 19.4 3.6 20.25 4.35 21.05 4.7 21.45 5.1 21.8 5.25 21.85 5.4 21.9 5.8 21.9 6.2 21.9 6.65 21.75 7.15 21.65 7.35 21.5 7.5 21.35 7.7 21.2 7.85 21
L 8.9 21.45 9.45 23.4 13.85 23.75
Q 14.15 23.4 14.4 23.05 14.8 22.55 15.1 22 15.2 21.85 15.25 21.7 15.25 21.6 15.25 21.5
L 16.65 21.1
Q 17.4 21.55 18.2 22 18.3 22 18.45 22.05 19.05 21.75 19.6 21.4 20.45 20.7 21.15 19.9 21.55 19.5 21.8 19.05 21.85 18.9 21.9 18.75 21.75 18.15 21.6 17.6 21.5 17.3 21.35 17.05 21.2 16.75 21.05 16.5
L 21.5 15.4 23.15 14.95
Q 23.2 14.85 23.25 14.75 23.9 13.7 23.9 12.5 23.9 11.55 23.45 10.8 23.2 10.35 22.85 10 22.65 9.75 22.45 9.6 21.9 9.35 21.35 9.1
L 20.9 7.6 21.75 6.3
Q 21.75 6.15 21.7 6.05
M 20.35 11.3
Q 20.8 11.55 21.35 11.7
L 21.35 12.95 20.15 13.25
Q 19.9 13.45 19.7 13.75 18.95 14.95 18.35 16.3 18.25 16.5 18.25 16.8
L 19.2 18.35 18.3 19.25
Q 17.5 18.85 16.7 18.5 16.2 18.6 15.75 18.75 14.7 19.1 13.9 19.75 13.15 20.35 12.65 21.25
L 11.35 21.25 10.95 19.8
Q 10.85 19.7 10.75 19.65 9.9 19.1 9.05 18.75 8.5 18.45 7.9 18.3 7.7 18.15 7.45 18.15
L 6 19.15 5.05 18.2
Q 5.35 17.7 5.5 17.15 5.7 16.55 5.7 15.95 5.65 14.8 5 13.95 4.55 13.5 4.05 13.15 3.4 12.75 2.75 12.5
L 2.75 11.25
Q 3.05 11.2 3.35 11.15 3.65 11.05 3.95 11 4.1 10.9 4.3 10.8 4.4 10.7 4.45 10.55 5.25 8.95 6 7.35
L 4.9 5.75 5.8 4.9 7.3 5.7
Q 7.45 5.7 7.65 5.7 8.7 5.35 9.6 4.95 10.3 4.6 10.85 4 11.25 3.5 11.5 2.85
L 12.75 2.85 13.4 4.5
Q 14.9 5.25 16.45 6.05
L 18.15 4.95 19.1 5.95
Q 18.6 7.35 18.85 9 19 9.9 19.55 10.65 19.85 11.05 20.35 11.3
M 14 8.7
Q 13.65 8.6 13.3 8.55 12.6 8.4 11.9 8.35 11.2 8.5 10.55 8.8 9.9 9 9.35 9.4 8.8 9.75 8.55 10.4 8.2 11.2 8.15 12.2 8.05 13.2 8.6 14.1 9.15 14.95 9.95 15.55 10.5 15.85 11.15 16 11.8 16.2 12.5 16.25 13.6 16.05 14.25 15.55 14.75 15.15 15.2 14.5 15.55 13.9 15.75 13.2 15.95 12.6 15.95 11.95 15.9 11.25 15.7 10.65 15.45 10 15 9.55 14.55 9.05 14 8.7
M 10.4 11.55
Q 10.5 11.4 10.6 11.25 11.2 10.55 12.25 10.6 12.7 10.7 13.2 10.85
L 13.65 11.15
Q 14.2 12.4 13.2 13.5 12.75 14 12.05 14.05 11.05 13.8 10.5 12.95 10.1 12.3 10.4 11.55 Z"/>
</g>
</defs>

<g transform="matrix( 1, 0, 0, 1, 0,0) ">
<use xlink:href="#Layer1_0_FILL"/>
</g>

<g transform="matrix( 1, 0, 0, 1, 0,0) ">
<use xlink:href="#Layer0_0_FILL"/>
</g>
</svg>
